<svg width="159" height="168" viewBox="0 0 159 168" fill="none" xmlns="http://www.w3.org/2000/svg">
<path d="M0.694946 66.954V48.2391L79.5304 0.708862L157.579 48.414V67.2364L86.9945 24.0746V163.133L79.8549 167.028L72.0663 163.133V24.0746L0.694946 66.954Z" fill="white"/>
<path fill-rule="evenodd" clip-rule="evenodd" d="M0.694946 71.6713V120.653L15.143 129.74V119.945L53.6135 96.5794V152.043L68.3645 161.602V30.5943L0.694946 71.6713ZM15.5723 82.1312V100.481L34.5929 88.9295L53.6135 77.3784V58.8484L15.5723 82.1312Z" fill="white"/>
<path fill-rule="evenodd" clip-rule="evenodd" d="M90.9104 30.5943V161.602L157.579 120.651V71.5286L90.9104 30.5943ZM105.41 132.938V58.8484L143.495 81.9852V109.9L105.41 132.938Z" fill="white"/>
<path d="M0.694946 66.954V48.2391L79.5304 0.708862L157.579 48.414V67.2364L86.9945 24.0746V163.133L79.8549 167.028L72.0663 163.133V24.0746L0.694946 66.954Z" stroke="#938D03"/>
<path fill-rule="evenodd" clip-rule="evenodd" d="M0.694946 71.6713V120.653L15.143 129.74V119.945L53.6135 96.5794V152.043L68.3645 161.602V30.5943L0.694946 71.6713ZM15.5723 82.1312V100.481L34.5929 88.9295L53.6135 77.3784V58.8484L15.5723 82.1312Z" stroke="#938D03"/>
<path fill-rule="evenodd" clip-rule="evenodd" d="M90.9104 30.5943V161.602L157.579 120.651V71.5286L90.9104 30.5943ZM105.41 132.938V58.8484L143.495 81.9852V109.9L105.41 132.938Z" stroke="#938D03"/>
</svg>
